<?xml version="1.0" encoding="utf-8"?>
<!-- Generator: Adobe Illustrator 24.1.1, SVG Export Plug-In . SVG Version: 6.00 Build 0)  -->
<svg version="1.1" id="Layer_1" xmlns="http://www.w3.org/2000/svg" xmlns:xlink="http://www.w3.org/1999/xlink" x="0px"
    y="0px" viewBox="0 0 1920 1080" style="enable-background:new 0 0 1920 1080;" xml:space="preserve">
    <style type="text/css">
        .st0 {
            fill: #FEFEFE;
        }

        .st1 {
            fill: #35C83C;
        }

        .st2 {
            fill: #5BC960;
        }

        .st3 {
            fill: #55C45A;
        }

        .st4 {
            fill: #72AA75;
        }

        .st5 {
            fill: #49B74E;
        }

        .st6 {
            fill: #FDFDFD;
        }

        .st7 {
            fill: #FDFEFD;
        }
    </style>
    <g>
        <g>
            <path class="st0" d="M960.28,922.23c-297.34,0-594.69-0.05-892.03,0.25c-8.73,0.01-10.06-2.14-10.05-10.3
			c0.25-248.47,0.25-496.94-0.01-745.4c-0.01-8.25,1.46-10.26,10.09-10.26c594.3,0.26,1188.6,0.27,1782.9,0
			c9.03,0,10.65,2.28,10.64,10.87c-0.26,248.47-0.26,496.93,0,745.4c0.01,7.86-1.35,9.67-9.51,9.66
			C1554.97,922.19,1257.62,922.23,960.28,922.23z" />
            <path d="M130.39,659.92c-0.4-13.29,1.47-28.81,6.05-43.78c2.08-6.79,1.12-11.26-3.3-16.78c-80.97-101.37-32.19-249.34,93.3-282.96
			c6.23-1.67,8.73-4.66,10.93-10.23c47.95-121.19,199.52-153.23,291.74-61.68c4.2,4.17,7.74,6.02,14.12,4.96
			c126.66-21.11,233.3,95.78,200.46,219.74c-1.9,7.17-1.24,11.94,3.47,17.84c80.09,100.45,31.83,248.36-91.99,281.99
			c-6.72,1.82-10.29,4.56-12.9,11.2C594.72,901.17,443.2,932.69,350.5,840.96c-4.46-4.41-8.3-5.42-14.33-4.41
			C229.1,854.57,130.63,771.11,130.39,659.92z" />
            <path d="M1510.18,678.37c23.04-73.8,46.04-147.61,69.15-221.38c3.48-11.1,4.35-26.29,12.03-31.87c7.74-5.63,22.48-2.04,34.14-1.77
			c11.57,0.27,25.93-4.83,33.91,2.07c7.31,6.33,8.08,20.34,11.46,31.06c22.67,71.9,45.26,143.82,67.85,215.75
			c0.81,2.57,1.28,5.24,2.15,8.9c-19.17,0-37.78-0.27-56.38,0.15c-6.4,0.15-6.57-4.08-7.6-8.03c-4.04-15.41-8.27-30.79-11.79-46.33
			c-1.21-5.35-3.49-6.82-8.67-6.76c-21.45,0.24-42.91,0.34-64.36-0.05c-6.12-0.11-7.9,2.51-9.15,7.76
			c-3.68,15.51-7.97,30.87-11.74,46.35c-1.13,4.66-2.5,7.59-8.27,7.41c-17.52-0.55-35.05-0.55-52.58-0.76
			c-0.82-0.51-1.12-1.05-0.89-1.62C1509.67,678.66,1509.92,678.37,1510.18,678.37z" />
            <path d="M894.43,552.09c0-39.75,0.17-79.51-0.16-119.26c-0.06-7.23,1.27-10.11,9.35-9.78c36.57,1.47,73.39-3.04,109.75,2.51
			c49.8,7.6,73.96,36.27,72.69,83.76c-1.2,44.98-31.3,76.84-77.88,82.92c-14.76,1.93-29.58,2.62-44.32,1.62
			c-9.79-0.66-11.29,3.09-11.08,11.67c0.55,22.59,0.01,45.21,0.31,67.81c0.08,5.83-1.13,8.17-7.59,7.94
			c-14.41-0.51-28.87-0.59-43.27,0.02c-7.28,0.31-7.97-2.73-7.93-8.78C894.54,632.38,894.43,592.23,894.43,552.09z" />
            <path d="M1510.18,678.37c0.05,0.84,0.1,1.67,0.15,2.51c-19.49,0.21-38.99,0.17-58.47,0.79c-6.24,0.2-7.72-3.89-10.02-7.87
			c-13-22.51-26.03-45-39.57-68.38c-7.7,8.68-14.5,16.57-21.56,24.21c-3.38,3.67-2.61,7.97-2.65,12.16
			c-0.09,10.53-0.36,21.08,0.09,31.59c0.26,6.13-1.67,8.08-7.86,7.89c-14.04-0.43-28.11-0.56-42.14,0.04
			c-7.18,0.3-8.08-2.55-8.04-8.74c0.26-40.57,0.13-81.14,0.13-121.71c0-45.64,0.2-91.29-0.19-136.93
			c-0.07-8.1,1.95-10.87,10.28-10.4c12.45,0.71,24.99,0.68,37.45,0.01c8.22-0.45,10.51,2.12,10.44,10.37
			c-0.4,45.25-0.19,90.5-0.19,135.76c0,3.1,0,6.2,0,9.99c5.47-0.99,7.07-5.36,9.49-8.36c16.17-20.01,32.28-40.07,48.05-60.4
			c3.71-4.79,7.5-6.72,13.63-6.57c17.8,0.45,35.61,0.16,55.87,0.16c-17.17,20.26-33.02,38.7-48.55,57.41
			c-6.64,8-18.41,14.96-18.25,24.49c0.15,8.7,9.31,17.33,14.74,25.84c16.55,25.92,33.16,51.8,49.88,77.62
			C1504.92,672.94,1505.79,677.21,1510.18,678.37z" />
            <path d="M1219.08,661.49c-17,13.96-34.51,24.36-56.35,24.69c-27.89,0.42-50.52-15.45-57.49-40.51
			c-8.09-29.13,1.69-55.01,26.61-69.53c22.37-13.03,47.34-17.64,72.51-20.55c9.77-1.13,9.24-4.88,6.7-11.74
			c-4.61-12.46-14.5-16.71-26.58-17.15c-16.53-0.61-31.42,5.39-45.32,13.41c-7.39,4.26-10.7,2.98-13.78-4.54
			c-2.64-6.44-6.06-12.7-10.06-18.39c-5.93-8.45-4.88-13.2,4.94-17.98c23.06-11.22,46.71-19.33,72.64-19.39
			c46.71-0.11,75.12,23.94,77.84,70.43c2.43,41.6,0.84,83.43,1.21,125.16c0.04,4.78-1.8,5.95-6.15,5.79
			c-7.01-0.26-14.05-0.07-21.07-0.07C1225.01,681.12,1225.01,681.12,1219.08,661.49z" />
            <path d="M1824.53,552.34c0,39.73-0.17,79.45,0.16,119.18c0.06,7.25-1.26,10.25-9.35,9.8c-13.21-0.74-26.51-0.73-39.72,0
			c-8.14,0.45-10.29-1.77-10.24-10.08c0.38-65.82,0.21-131.64,0.21-197.46c0-13.63,0.36-27.28-0.15-40.89
			c-0.26-7.15,1.09-10.32,9.28-9.86c13.59,0.76,27.28,0.62,40.89,0.04c7.13-0.3,9.17,1.58,9.1,8.94
			C1824.32,472.11,1824.53,512.23,1824.53,552.34z" />
            <path class="st1" d="M561.83,292.88c40.02-2.66,77.38,3.87,106.27,34.45c30.16,31.94,38.75,71.88,39.21,114.26
			c0.1,9.22-6.13,5.05-9.56,3.19c-15.34-8.29-30.46-16.99-45.58-25.68c-31.39-18.03-62.78-36.04-94.05-54.27
			c-9.19-5.36-17.1-4.02-26.1,1.21c-32.46,18.83-65.41,36.81-97.99,55.43c-20.76,11.86-41.18,24.3-61.78,36.44
			c-2.29,1.35-4.52,3.74-7.37,2.73c-3.48-1.24-1.95-4.68-1.97-7.12c-0.14-18.32,0.23-36.65-0.24-54.96
			c-0.16-6.29,2.93-8.83,7.65-11.48c43.71-24.48,87.5-48.83,130.89-73.85c15.23-8.78,29.97-17.99,48.2-18.61
			C553.36,292.67,557.89,294.85,561.83,292.88z" />
            <path class="st1" d="M408.39,651.31c-19.79,11.33-37.73,21.54-55.6,31.89c-3.26,1.89-5.9,2.63-9.58,0.44
			c-47.84-28.34-97.05-54.6-143.43-85.14c-83.11-54.72-85.57-157.22-6.99-218.31c7.98-6.21,16.67-11.52,25.03-17.24
			c6.47-4.43,9.11-2.03,9.09,5.1c-0.01,3.12,0.02,6.24,0.02,9.36c0.03,49.93,0.22,99.85-0.04,149.77
			c-0.06,11.88,4.64,19.11,15.07,25.1c23.52,13.51,47.13,26.87,69.83,41.89c22.15,14.66,46,26.74,69.01,40.11
			C389.54,639.37,398.03,644.9,408.39,651.31z" />
            <path class="st1" d="M608.23,730.18c-5.06,53.04-54.16,117.15-116.71,117.75c-8.5,0.08-17,2.37-25.42-0.56
			c-4.69-3-10.33,0.33-15.08-2.27c-15.5-1.03-41.08-12.15-61.89-27.23c25.56-15.44,50.6-30.77,75.84-45.76
			c23.08-13.71,46.31-27.18,69.63-40.5c9.43-5.39,13.25-12.66,13.11-23.82c-0.42-35.42,0.19-70.85,0.41-106.28
			c1.55-27.32,1.47-54.63,0.07-81.95c-0.23-3.48-0.21-7.04,4.77-4.21c17.61,10.01,35.12,20.19,52.67,30.29
			c3.73,2.14,3.49,5.75,3.47,9.26c-0.22,43.65-0.46,87.3-0.69,130.96C606.87,700.61,607.15,715.39,608.23,730.18z" />
            <path class="st0" d="M472.58,436.5c19.16-11.08,36.77-21.07,54.15-31.46c4.35-2.6,7.6-2.13,11.73,0.27
			c46.82,27.22,94.46,53.11,140.39,81.75c44.03,27.46,64.64,69.23,60.74,120.95c-3.76,49.76-29.84,85.72-74.24,108.62
			c-8.88,4.58-11.42,3.65-11.31-7.04c0.48-49.51-0.06-99.02,0.39-148.53c0.13-13.66-4.87-22.5-16.8-29.27
			c-50.84-28.82-101.35-58.22-151.98-87.43C481.62,442.06,477.69,439.59,472.58,436.5z" />
            <path class="st0" d="M331.97,568.08c-20.21-11.59-38.65-22.18-57.1-32.74c-3.8-2.17-3.27-5.79-3.26-9.27
			c0.03-53.84-1.48-107.73,0.51-161.49c1.99-53.77,29.12-93.5,78.45-115.24c47.97-21.14,93.56-13.38,135.64,17.74
			c-2.51,4.68-6.87,5.75-10.38,7.79c-42.49,24.65-84.94,49.39-127.69,73.59c-11.53,6.52-16.37,15.07-16.28,28.34
			c0.4,59.29,0.13,118.59,0.1,177.89C331.96,558.43,331.97,562.16,331.97,568.08z" />
            <path class="st0" d="M178.11,639.2c29.75,17.15,57.37,33.08,85,49c17.89,10.31,36.12,20.1,53.57,31.12
			c12.15,7.66,22.59,6.92,34.73-0.22c50.73-29.82,101.84-58.98,152.81-88.38c3.28-1.89,6.58-3.73,11.56-6.54
			c0,22.98-0.05,44.24,0.04,65.5c0.02,4.52-3.46,5.76-6.39,7.45c-46.59,26.86-92.53,54.93-140.01,80.13
			c-48.03,25.5-96.21,21.53-139.89-10.76C187.82,735.68,171.94,692.73,178.11,639.2z" />
            <path class="st1" d="M363.44,542.74c0-14.78-4.95-32.36,1.4-43.54c6.29-11.09,23.93-15.78,36.64-23.19
			c6.05-3.53,12.84-6.09,18.19-10.44c13.6-11.05,25.79-10.76,40.32-0.52c15.51,10.93,32.76,19.47,49.55,28.49
			c6.04,3.24,8.02,7.2,7.92,13.86c-0.35,23.76-0.36,47.54,0.01,71.3c0.1,6.31-2.15,9.64-7.46,12.87
			c-20.36,12.39-42.36,21.82-62.24,35.08c-4.95,3.3-10.77,3.71-17-0.1c-20.13-12.3-40.63-24.02-61.22-35.54
			c-5.18-2.9-6.99-6.28-6.81-12.03c0.37-12.07,0.11-24.15,0.11-36.23C363.04,542.74,363.24,542.74,363.44,542.74z" />
            <path class="st2" d="M548.18,519.55c4.37,14.87,1.68,30.08,1.74,45.1c0.06,12.25,2.81,24.79-1.81,36.85
			C548.14,574.18,548.16,546.87,548.18,519.55z" />
            <path class="st3"
                d="M608.23,730.18c-2.92-14.79-3.28-29.57,0.18-44.34C608.34,700.62,608.29,715.4,608.23,730.18z" />
            <path class="st4"
                d="M451.02,845.09c5.1,0.27,10.55-1.82,15.07,2.27C460.94,847.44,455.63,848.59,451.02,845.09z" />
            <path class="st5"
                d="M561.83,292.88c-3.74,3.43-8.21,1.58-12.41,1.74C553.24,291.78,557.57,292.56,561.83,292.88z" />
            <path class="st6" d="M1597.58,573.43c8.71-35.09,17.23-69.37,26.42-106.41c9.35,36.91,18.09,71.37,26.96,106.41
			C1633.04,573.43,1615.96,573.43,1597.58,573.43z" />
            <path class="st0" d="M952.97,508.67c0-10.53-0.03-21.07,0.02-31.6c0.02-3.32-1.08-7.32,4.74-7.05
			c14.76,0.68,29.66-1.53,44.27,2.29c16.66,4.37,25.18,14.28,25.91,30.21c0.97,21.12-6.39,34.49-22.56,40.6
			c-15.41,5.83-31.55,3.79-47.47,4.22c-5.63,0.15-4.89-3.63-4.9-7.07C952.96,529.73,952.98,519.2,952.97,508.67z" />
            <path class="st6" d="M1213.31,607.82c0.01,21.72-17.91,36.68-38.46,32.1c-16.29-3.63-21.62-19.78-9.97-31.92
			c12.07-12.57,28.86-14.18,44.8-17.42c3.58-0.73,3.52,2.13,3.58,4.39C1213.38,599.25,1213.3,603.54,1213.31,607.82z" />
            <path class="st7" d="M461.16,572.28c-14.69-16.8-28.05-15.45-42.06,0.77c-0.15-11.06,8.07-18.91,4.57-25.92
			c-3.08-6.16-11.28-9.75-17.95-15.06c8.8-2.8,18.84,2.45,24.21-2.89c5.18-5.15,6.23-14.44,10.29-25.02
			c3.16,20.16,10.08,33.37,33.53,26.64C455.69,540.88,450.26,553.47,461.16,572.28z" />
        </g>
    </g>
</svg>